<svg width="229.08001098632812" height="61.90286572946281" viewBox="0 0 370 99.98279736972857" class="looka-1j8o68f"><defs id="SvgjsDefs2880"><linearGradient id="SvgjsLinearGradient2887"><stop id="SvgjsStop2888" stop-color="#905e26" offset="0"></stop><stop id="SvgjsStop2889" stop-color="#f5ec9b" offset="0.5"></stop><stop id="SvgjsStop2890" stop-color="#905e26" offset="1"></stop></linearGradient></defs><g id="SvgjsG2881" featurekey="UqkkrJ-0" transform="matrix(0.39118375345873146,0,0,0.39118375345873146,-25.846322254330083,-25.637389684104317)" fill="url(#SvgjsLinearGradient2887)"><path xmlns="http://www.w3.org/2000/svg" fill="url(#SvgjsLinearGradient2887)" xmlns:a="http://ns.adobe.com/AdobeSVGViewerExtensions/3.0/" a:adobe-knockout="false" d="M97.525,109.331l2.974-3.296c6.748-6.807,7.151-7.214,11.826-11.134     c2.631-2.064,6.17-4.778,8.888-6.729c17.951-12.38,42.964-21.189,67.617-22.474c3.697-0.192,7.256-0.209,10.661-0.063l0.95,0.046     c8.825,0.689,9.354,0.73,14.713,1.614c9.464,1.888,10.028,1.998,15.655,3.674c-9.965-3.006-22.103-4.361-35.867-3.644     C156.394,69.335,117.094,86.968,97.525,109.331"></path><path xmlns="http://www.w3.org/2000/svg" fill="url(#SvgjsLinearGradient2887)" xmlns:a="http://ns.adobe.com/AdobeSVGViewerExtensions/3.0/" a:adobe-knockout="false" d="M69.501,163.724l2.021-7.443c1.329-3.848,3.1-8.986,4.63-12.758l0.674-1.56     c15.141-34.348,71.952-64.401,127.459-67.293c26.144-1.362,47.364,3.542,61.044,12.691l6.584,4.746     c3.434,2.851,7.979,6.698,11.24,9.745C269.246,88.4,243.377,80.768,210.153,82.5c-60.384,3.147-122.196,36.038-138.062,73.462     C70.973,158.602,70.113,161.189,69.501,163.724"></path><path xmlns="http://www.w3.org/2000/svg" fill="url(#SvgjsLinearGradient2887)" xmlns:a="http://ns.adobe.com/AdobeSVGViewerExtensions/3.0/" a:adobe-knockout="false" d="M68.891,220.21c-0.813-4.66-1.851-10.889-2.375-15.59l-0.419-6.647     c-0.224-6.202,1.058-12.827,3.997-19.76c17.07-40.266,83.574-75.653,148.543-79.04c42.602-2.219,73.965,9.873,85.695,29.813     c6.049,11.404,6.541,12.336,9.576,20.417c-8.801-23.918-42.652-38.976-90.279-36.495     c-66.251,3.452-134.069,39.539-151.476,80.601C68.094,203.082,67.135,212.081,68.891,220.21"></path><path xmlns="http://www.w3.org/2000/svg" fill="url(#SvgjsLinearGradient2887)" xmlns:a="http://ns.adobe.com/AdobeSVGViewerExtensions/3.0/" a:adobe-knockout="false" d="M92.813,271.626c-7.364-10.301-7.965-11.143-11.981-18.586     c-5.477-10.262-5.922-22.479-0.262-35.826c17.182-40.531,84.125-76.154,149.522-79.56c53.184-2.772,88.967,16.613,91.234,45.75     c0.137,3.502,0.402,8.168,0.379,11.67c-0.17,3.192-0.287,7.455-0.592,10.637c3.164-31.788-32.625-53.73-87.91-50.85     c-63.073,3.286-127.639,37.642-144.21,76.733C82.489,246.935,84.344,260.728,92.813,271.626"></path><path xmlns="http://www.w3.org/2000/svg" fill="url(#SvgjsLinearGradient2887)" xmlns:a="http://ns.adobe.com/AdobeSVGViewerExtensions/3.0/" a:adobe-knockout="false" d="M138.141,308.339l-1.272-0.625c-9.498-5.146-11.208-6.073-19.119-11.712     c-14.395-10.624-19.502-26.277-11.865-44.292c14.988-35.355,73.379-66.426,130.423-69.398     c56.316-2.934,90.262,22.611,76.697,57.281l-1.432,3.529c-5.064,10.84-5.369,11.489-9.361,17.986     c1.588-2.523,2.938-5.081,4.035-7.666c13.582-32.041-17.316-55.833-69.018-53.139c-51.698,2.695-104.621,30.854-118.205,62.897     C110.784,282.642,118.919,299.047,138.141,308.339"></path><path xmlns="http://www.w3.org/2000/svg" fill="url(#SvgjsLinearGradient2887)" xmlns:a="http://ns.adobe.com/AdobeSVGViewerExtensions/3.0/" a:adobe-knockout="false" d="M203.519,320.49c33.849-1.764,68.495-20.201,77.39-41.179     c8.895-20.979-11.336-36.553-45.184-34.789c-33.849,1.764-68.497,20.201-77.391,41.179     C149.441,306.679,169.671,322.255,203.519,320.49c-0.983,0.257-1.973,0.411-2.967,0.463c-8.32,0.227-8.646,0.237-13.268,0.01     c-2.216-0.176-5.176-0.358-7.385-0.594c-30.642-3.323-47.16-20.407-37.89-42.273c10.914-25.743,53.429-48.367,94.965-50.532     c41.535-2.164,66.359,16.951,55.445,42.693c-3.455,8.148-10.078,15.985-18.83,22.959c-2.738,2.07-6.428,4.782-9.254,6.727     c-6.793,4.263-6.793,4.263-10.469,6.225c-6.666,3.362-6.666,3.362-10.117,4.828c-6.504,2.603-6.504,2.603-10.041,3.775     c-3.322,1.016-9.504,2.903-10.275,2.903c-6.993,1.504-7.267,1.562-10.89,2.09c-7.553,0.933-7.848,0.971-11.992,1.189     C201.546,320.901,202.535,320.747,203.519,320.49"></path><path xmlns="http://www.w3.org/2000/svg" fill="url(#SvgjsLinearGradient2887)" xmlns:a="http://ns.adobe.com/AdobeSVGViewerExtensions/3.0/" a:adobe-knockout="false" d="M218.023,308.125c11.248-0.586,22.766-6.713,25.721-13.686     s-3.768-12.148-15.018-11.562c-11.25,0.587-22.767,6.714-25.722,13.687C200.049,303.535,206.772,308.712,218.023,308.125     c-1.771,2.74-3.607,5.031-5.493,6.887c-20.602,1.075-32.915-8.405-27.502-21.174c5.414-12.769,26.502-23.991,47.104-25.065     c20.602-1.072,32.916,8.407,27.502,21.176c-5.412,12.769-26.502,23.99-47.104,25.063     C214.416,313.156,216.253,310.865,218.023,308.125"></path></g><g id="SvgjsG2882" featurekey="0kuQ8p-0" transform="matrix(3.6302305320467996,0,0,3.6302305320467996,117.62638732957814,-5.128791230059658)" fill="#000000"><path d="M11.4 12.42 q0.86 0.54 1.31 1.32 t0.45 1.74 q0 2.26 -1.72 3.46 q-1.16 0.84 -3.14 1.06 l-0.08 0 q-0.28 0 -0.46 -0.18 q-0.24 -0.22 -0.24 -0.52 l0 -1.44 q0 -0.26 0.18 -0.46 t0.44 -0.24 q0.94 -0.1 1.46 -0.44 q0.4 -0.24 0.54 -0.62 q0.08 -0.22 0.08 -0.56 q0 -0.22 -0.08 -0.38 t-0.28 -0.3 q-0.58 -0.4 -1.5 -0.68 l-0.32 -0.1 q-1 -0.28 -1.84 -0.46 q-0.18 -0.04 -0.58 -0.14 l-0.22 -0.06 q-0.72 -0.18 -1.52 -0.5 q-1.18 -0.5 -1.94 -1.26 q-0.88 -0.88 -0.88 -2.32 q0 -1.98 1.52 -3.22 q1.04 -0.88 2.92 -1.12 q0.32 -0.04 0.55 0.18 t0.23 0.52 l0 1.44 q0 0.26 -0.16 0.46 t-0.41 0.23 t-0.51 0.11 q-0.58 0.22 -0.82 0.43 t-0.34 0.43 q-0.1 0.34 -0.1 0.64 q0 0.16 0.18 0.34 q0.28 0.28 0.82 0.5 q0.24 0.1 0.84 0.3 l2.5 0.62 l0.12 0.04 q0.94 0.26 1.36 0.4 q0.94 0.32 1.64 0.78 z M8.06 7.9 q-0.24 -0.06 -0.39 -0.25 t-0.15 -0.45 l0 -1.46 q0 -0.32 0.26 -0.54 q0.1 -0.1 0.26 -0.13 t0.3 -0.01 q1.76 0.28 2.86 1.2 q1.5 1.24 1.6 3.16 q0.02 0.28 -0.19 0.51 t-0.51 0.23 l-1.56 0 q-0.26 0 -0.46 -0.18 t-0.22 -0.44 q-0.08 -0.52 -0.34 -0.86 q-0.42 -0.5 -1.3 -0.76 q-0.06 0 -0.08 -0.02 l-0.08 0 z M5.72 17.08 q0.24 0.04 0.4 0.24 t0.16 0.44 l0 1.48 q0 0.32 -0.24 0.54 q-0.2 0.16 -0.46 0.16 l-0.1 0 q-1.86 -0.28 -3.06 -1.22 q-1.56 -1.24 -1.76 -3.46 q-0.04 -0.32 0.18 -0.55 t0.52 -0.23 l1.58 0 q0.28 0 0.48 0.19 t0.22 0.47 q0.06 1 0.98 1.54 q0.42 0.24 1.1 0.4 z M28.18 18.7 q0.12 0.14 0.14 0.34 t-0.07 0.38 t-0.26 0.28 t-0.37 0.1 l-1.9 0 q-0.18 0 -0.33 -0.08 t-0.25 -0.22 l-4.78 -6.88 l-1.96 1.84 l0 4.64 q0 0.28 -0.21 0.49 t-0.49 0.21 l-1.52 0 q-0.28 0 -0.49 -0.21 t-0.21 -0.49 l0 -5.56 q0 -0.32 0.22 -0.5 l8.36 -7.84 q0.2 -0.2 0.48 -0.2 l2.16 0 q0.2 0 0.38 0.12 t0.26 0.32 t0.04 0.41 t-0.2 0.37 l-4.68 4.4 z M16.18 10.1 q-0.28 0 -0.49 -0.2 t-0.21 -0.5 l0 -3.7 q0 -0.28 0.21 -0.49 t0.49 -0.21 l1.52 0 q0.28 0 0.49 0.21 t0.21 0.49 l0 3.7 q0 0.3 -0.21 0.5 t-0.49 0.2 l-1.52 0 z M42.44 5.380000000000001 q0.1 0.18 0.09 0.38 t-0.13 0.36 l-5.54 8 l0 5.14 q0 0.28 -0.21 0.49 t-0.49 0.21 l-1.54 0 q-0.3 0 -0.51 -0.21 t-0.21 -0.49 l0 -5.86 q0 -0.2 0.14 -0.4 l5.34 -7.7 q0.1 -0.14 0.25 -0.22 t0.33 -0.08 l1.86 0 q0.2 0 0.37 0.1 t0.25 0.28 z M34.019999999999996 9.78 q-0.08 0.18 -0.25 0.28 t-0.37 0.1 l-1.86 0 q-0.36 0 -0.6 -0.3 l-2.6 -3.74 q-0.1 -0.16 -0.11 -0.36 t0.07 -0.38 t0.25 -0.28 t0.37 -0.1 l1.88 0 q0.34 0 0.58 0.3 l2.6 3.74 q0.1 0.16 0.11 0.36 t-0.07 0.38 z M50.9 5 q2.38 0 3.84 1.37 t1.46 3.65 t-1.44 3.64 t-3.86 1.36 l-3.82 0 l0 4.08 q0 0.28 -0.21 0.49 t-0.49 0.21 l-1.52 0 q-0.28 0 -0.49 -0.21 t-0.21 -0.49 l0 -6.2 q0 -0.28 0.21 -0.49 t0.49 -0.21 l5.92 0 q1.34 0 1.92 -0.58 q0.58 -0.52 0.58 -1.58 t-0.6 -1.63 t-1.9 -0.57 l-5.92 0 q-0.28 0 -0.49 -0.21 t-0.21 -0.49 l0 -1.44 q0 -0.28 0.21 -0.49 t0.49 -0.21 l6.04 0 z M68.82 16.96 q0.3 0 0.5 0.21 t0.2 0.51 l0 1.46 q0 0.28 -0.2 0.49 t-0.5 0.21 l-9.88 0 q-0.28 0 -0.49 -0.21 t-0.21 -0.49 l0 -1.46 q0 -0.3 0.21 -0.51 t0.49 -0.21 l9.88 0 z M58.94 13.86 q-0.28 0 -0.49 -0.21 t-0.21 -0.49 l0 -1.5 q0 -0.28 0.21 -0.49 t0.49 -0.21 l8.98 0 q0.3 0 0.51 0.21 t0.21 0.49 l0 1.5 q0 0.28 -0.21 0.49 t-0.51 0.21 l-8.98 0 z M68.82 5 q0.3 0 0.5 0.21 t0.2 0.49 l0 1.46 q0 0.3 -0.2 0.51 t-0.5 0.21 l-9.88 0 q-0.28 0 -0.49 -0.21 t-0.21 -0.51 l0 -1.46 q0 -0.28 0.21 -0.49 t0.49 -0.21 l9.88 0 z"></path></g><g id="SvgjsG2883" featurekey="Nh6iBa-0" transform="matrix(0.7907757151880135,0,0,0.7907757151880135,144.2092243319459,71.36967775250093)" fill="#000000"><path d="M7.3 20 c-1.18 0 -2.26 -0.28 -3.22 -0.84 c-0.96 -0.58 -1.72 -1.36 -2.26 -2.34 s-0.82 -2.08 -0.82 -3.3 c0 -1.18 0.28 -2.28 0.84 -3.26 c0.56 -0.96 1.34 -1.74 2.3 -2.3 c0.98 -0.56 2.08 -0.84 3.24 -0.84 c0.88 0 1.74 0.2 2.58 0.56 c0.84 0.38 1.56 0.88 2.16 1.52 c0.08 0.1 0.08 0.24 0 0.34 l-1.9 1.56 c-0.06 0.06 -0.12 0.1 -0.2 0.1 s-0.16 -0.04 -0.2 -0.1 c-1.02 -1.24 -2.66 -1.5 -4.04 -0.64 c-1.2 0.74 -1.64 2.1 -1.58 3.46 c0.06 1.38 1.06 2.56 2.38 2.96 c1.2 0.36 2.38 0.08 3.24 -0.84 c0.06 -0.04 0.12 -0.08 0.2 -0.06 c0.08 0 0.14 0.02 0.18 0.08 l1.94 1.36 c0.08 0.1 0.08 0.24 0 0.34 c-0.64 0.68 -1.4 1.24 -2.24 1.64 c-0.86 0.4 -1.74 0.6 -2.6 0.6 z M32.9386875 20 c-1.2 0 -2.3 -0.28 -3.26 -0.84 c-0.98 -0.56 -1.76 -1.36 -2.34 -2.32 c-0.56 -0.98 -0.84 -2.1 -0.84 -3.3 c0 -1.18 0.28 -2.28 0.84 -3.26 c0.58 -0.98 1.34 -1.76 2.32 -2.32 s2.08 -0.84 3.28 -0.84 c1.18 0 2.28 0.28 3.26 0.84 s1.76 1.34 2.32 2.32 c0.58 0.98 0.86 2.08 0.86 3.26 c0 1.2 -0.28 2.3 -0.86 3.28 c-0.56 0.98 -1.34 1.76 -2.32 2.34 c-0.98 0.56 -2.08 0.84 -3.26 0.84 z M32.97868750000001 17.12 c0.58 0 1.12 -0.16 1.6 -0.46 c0.5 -0.32 0.9 -0.74 1.18 -1.3 c0.3 -0.54 0.44 -1.16 0.44 -1.82 c0 -0.64 -0.14 -1.26 -0.44 -1.8 c-0.28 -0.54 -0.68 -0.96 -1.18 -1.28 c-0.48 -0.3 -1.02 -0.46 -1.6 -0.46 c-0.6 0 -1.14 0.16 -1.64 0.46 c-0.52 0.32 -0.92 0.74 -1.22 1.28 c-0.3 0.56 -0.44 1.16 -0.44 1.8 c0 0.66 0.14 1.28 0.44 1.82 c0.32 0.54 0.72 0.98 1.22 1.28 c0.5 0.32 1.04 0.48 1.64 0.48 z M53.937375 20 c-0.14 0 -0.26 -0.12 -0.26 -0.26 l0 -11.98 c0 -0.14 0.12 -0.26 0.26 -0.26 l2.36 0 c0.08 0 0.16 0.04 0.22 0.1 l4.6 7.1 l0 -6.94 c0 -0.14 0.12 -0.26 0.26 -0.26 l2.46 0 c0.14 0 0.26 0.12 0.26 0.26 l0 11.98 c0 0.14 -0.12 0.26 -0.26 0.26 l-2.36 0 c-0.08 0 -0.16 -0.04 -0.22 -0.1 l-4.58 -7.06 l0 6.9 c0 0.14 -0.12 0.26 -0.26 0.26 l-2.48 0 z M81.6360625 20 c-0.14 0 -0.24 -0.12 -0.24 -0.26 l0 -9.44 l-2.74 0 c-0.14 0 -0.26 -0.1 -0.26 -0.24 l0 -2.3 c0 -0.14 0.12 -0.26 0.26 -0.26 l8.58 0 c0.16 0 0.26 0.12 0.26 0.26 l0 2.3 c0 0.14 -0.1 0.24 -0.26 0.24 l-2.74 0 l0 9.44 c0 0.14 -0.12 0.26 -0.26 0.26 l-2.6 0 z M102.05475 20 c-0.16 0 -0.26 -0.12 -0.26 -0.26 l0 -11.98 c0 -0.14 0.1 -0.26 0.26 -0.26 l4.88 0 c1.52 0 2.72 0.38 3.56 1.16 c1.24 1.12 1.66 3.24 1.06 4.8 c-0.22 0.56 -0.6 1.08 -1.08 1.46 c-0.28 0.22 -0.58 0.38 -0.88 0.54 c0.86 1.36 2.16 4.12 2.16 4.12 c0.02 0.04 0.06 0.1 0.06 0.16 c0 0.14 -0.12 0.26 -0.26 0.26 l-2.96 0 c-0.08 0 -0.18 -0.06 -0.22 -0.14 l-1.74 -3.82 c-0.62 0.04 -1.1 0.02 -1.74 0.02 l0 3.68 c0 0.14 -0.12 0.26 -0.26 0.26 l-2.58 0 z M104.89474999999999 13.280000000000001 c0 0 2.52 0.28 3.4 -0.3 c0.34 -0.22 0.54 -0.76 0.54 -1.16 c-0.02 -0.44 -0.24 -0.9 -0.6 -1.18 c-0.38 -0.32 -1.32 -0.42 -1.8 -0.42 l-1.54 0.04 l0 3.02 z M126.3934375 20 c-0.08 0 -0.16 -0.04 -0.2 -0.12 c-0.06 -0.06 -0.06 -0.16 -0.04 -0.24 l4.66 -11.98 c0.04 -0.1 0.14 -0.16 0.24 -0.16 l2.68 0 c0.1 0 0.2 0.06 0.24 0.16 l4.58 11.98 c0.02 0.08 0.02 0.16 -0.04 0.24 c-0.04 0.08 -0.12 0.12 -0.2 0.12 l-2.78 0 c-0.1 0 -0.2 -0.06 -0.24 -0.16 l-0.74 -1.84 l-4.5 0.02 l-0.74 1.82 c-0.04 0.1 -0.14 0.16 -0.24 0.16 l-2.68 0 z M130.8734375 15.5 l2.88 0 l-1.44 -4.24 z M157.77212500000002 20 c-1.18 0 -2.26 -0.28 -3.22 -0.84 c-0.96 -0.58 -1.72 -1.36 -2.26 -2.34 s-0.82 -2.08 -0.82 -3.3 c0 -1.18 0.28 -2.28 0.84 -3.26 c0.56 -0.96 1.34 -1.74 2.3 -2.3 c0.98 -0.56 2.08 -0.84 3.24 -0.84 c0.88 0 1.74 0.2 2.58 0.56 c0.84 0.38 1.56 0.88 2.16 1.52 c0.08 0.1 0.08 0.24 0 0.34 l-1.9 1.56 c-0.06 0.06 -0.12 0.1 -0.2 0.1 s-0.16 -0.04 -0.2 -0.1 c-1.02 -1.24 -2.66 -1.5 -4.04 -0.64 c-1.2 0.74 -1.64 2.1 -1.58 3.46 c0.06 1.38 1.06 2.56 2.38 2.96 c1.2 0.36 2.38 0.08 3.24 -0.84 c0.06 -0.04 0.12 -0.08 0.2 -0.06 c0.08 0 0.14 0.02 0.18 0.08 l1.94 1.36 c0.08 0.1 0.08 0.24 0 0.34 c-0.64 0.68 -1.4 1.24 -2.24 1.64 c-0.86 0.4 -1.74 0.6 -2.6 0.6 z M180.21081250000003 20 c-0.14 0 -0.24 -0.12 -0.24 -0.26 l0 -9.44 l-2.74 0 c-0.14 0 -0.26 -0.1 -0.26 -0.24 l0 -2.3 c0 -0.14 0.12 -0.26 0.26 -0.26 l8.58 0 c0.16 0 0.26 0.12 0.26 0.26 l0 2.3 c0 0.14 -0.1 0.24 -0.26 0.24 l-2.74 0 l0 9.44 c0 0.14 -0.12 0.26 -0.26 0.26 l-2.6 0 z M200.6295 20 c-0.14 0 -0.26 -0.12 -0.26 -0.26 l0 -11.98 c0 -0.14 0.12 -0.26 0.26 -0.26 l2.6 0 c0.14 0 0.26 0.12 0.26 0.26 l0 11.98 c0 0.14 -0.12 0.26 -0.26 0.26 l-2.6 0 z M218.0481875 20 c-0.14 0 -0.26 -0.12 -0.26 -0.26 l0 -11.98 c0 -0.14 0.12 -0.26 0.26 -0.26 l2.36 0 c0.08 0 0.16 0.04 0.22 0.1 l4.6 7.1 l0 -6.94 c0 -0.14 0.12 -0.26 0.26 -0.26 l2.46 0 c0.14 0 0.26 0.12 0.26 0.26 l0 11.98 c0 0.14 -0.12 0.26 -0.26 0.26 l-2.36 0 c-0.08 0 -0.16 -0.04 -0.22 -0.1 l-4.58 -7.06 l0 6.9 c0 0.14 -0.12 0.26 -0.26 0.26 l-2.48 0 z M248.88687500000003 20 c-1.18 0 -2.28 -0.28 -3.24 -0.84 c-0.98 -0.58 -1.74 -1.36 -2.3 -2.32 c-0.56 -0.98 -0.84 -2.1 -0.84 -3.3 s0.28 -2.3 0.86 -3.26 c0.56 -0.98 1.36 -1.76 2.34 -2.32 c1 -0.56 2.12 -0.84 3.34 -0.84 c0.88 0 1.74 0.16 2.6 0.5 c0.84 0.32 1.58 0.78 2.18 1.36 c0.1 0.08 0.12 0.22 0.04 0.34 l-1.46 1.92 c-0.06 0.06 -0.12 0.1 -0.2 0.12 c-0.06 0 -0.14 -0.04 -0.2 -0.08 c-0.4 -0.4 -0.86 -0.72 -1.4 -0.94 c-0.52 -0.22 -1.04 -0.34 -1.56 -0.34 c-0.62 0 -1.2 0.16 -1.7 0.46 c-0.52 0.32 -0.92 0.74 -1.22 1.28 s-0.44 1.14 -0.44 1.8 s0.14 1.28 0.44 1.82 s0.72 0.98 1.22 1.3 c0.52 0.3 1.1 0.46 1.7 0.46 c0.32 0 0.66 -0.06 1.04 -0.16 c0.32 -0.1 0.66 -0.24 0.96 -0.4 l0 -0.92 l-1.38 0 c-0.08 0 -0.14 -0.02 -0.18 -0.08 c-0.06 -0.04 -0.08 -0.1 -0.08 -0.18 l0.02 -2.24 c0 -0.14 0.12 -0.26 0.26 -0.26 l3.88 0 c0.14 0 0.26 0.12 0.26 0.26 l0 5.02 c0 0.08 -0.04 0.16 -0.12 0.22 c-0.62 0.48 -1.38 0.88 -2.26 1.16 c-0.88 0.3 -1.74 0.46 -2.56 0.46 z"></path></g></svg>